<?xml version="1.0" encoding="UTF-8"?>
<svg id="Layer_1" data-name="Layer 1" xmlns="http://www.w3.org/2000/svg" xmlns:xlink="http://www.w3.org/1999/xlink" viewBox="0 0 1000 1000">
  <defs>
    <style>
      .cls-1 {
        fill: #c7a255;
      }

      .cls-1, .cls-2, .cls-3, .cls-4, .cls-5 {
        stroke-width: 0px;
      }

      .cls-6 {
        filter: url(#drop-shadow-4);
      }

      .cls-7 {
        filter: url(#drop-shadow-3);
      }

      .cls-8 {
        filter: url(#drop-shadow-1);
      }

      .cls-2 {
        fill: #403356;
      }

      .cls-3 {
        fill: #fff;
      }

      .cls-9 {
        filter: url(#drop-shadow-2);
      }

      .cls-4 {
        fill: #fbf3cf;
      }

      .cls-5 {
        fill: #523d0c;
      }
    </style>
    <filter id="drop-shadow-1" filterUnits="userSpaceOnUse">
      <feOffset dx=".5" dy=".5"/>
      <feGaussianBlur result="blur" stdDeviation="2"/>
      <feFlood flood-color="#000" flood-opacity=".5"/>
      <feComposite in2="blur" operator="in"/>
      <feComposite in="SourceGraphic"/>
    </filter>
    <filter id="drop-shadow-2" filterUnits="userSpaceOnUse">
      <feOffset dx=".5" dy=".5"/>
      <feGaussianBlur result="blur-2" stdDeviation="2"/>
      <feFlood flood-color="#000" flood-opacity=".5"/>
      <feComposite in2="blur-2" operator="in"/>
      <feComposite in="SourceGraphic"/>
    </filter>
    <filter id="drop-shadow-3" filterUnits="userSpaceOnUse">
      <feOffset dx=".5" dy=".5"/>
      <feGaussianBlur result="blur-3" stdDeviation="2"/>
      <feFlood flood-color="#000" flood-opacity=".5"/>
      <feComposite in2="blur-3" operator="in"/>
      <feComposite in="SourceGraphic"/>
    </filter>
    <filter id="drop-shadow-4" filterUnits="userSpaceOnUse">
      <feOffset dx=".5" dy=".5"/>
      <feGaussianBlur result="blur-4" stdDeviation="2"/>
      <feFlood flood-color="#000" flood-opacity=".5"/>
      <feComposite in2="blur-4" operator="in"/>
      <feComposite in="SourceGraphic"/>
    </filter>
  </defs>
  <rect class="cls-2" x=".59" y="-3.44" width="998.82" height="1006.88"/>
  <circle class="cls-3" cx="500" cy="500" r="365.22"/>
  <g class="cls-8">
    <path class="cls-4" d="m502,871.76c-204.99,0-371.76-166.77-371.76-371.76S297.01,128.24,502,128.24s371.76,166.77,371.76,371.76-166.77,371.76-371.76,371.76Zm0-737c-201.39,0-365.24,163.84-365.24,365.24s163.85,365.24,365.24,365.24,365.24-163.85,365.24-365.24-163.85-365.24-365.24-365.24Z"/>
    <path class="cls-5" d="m498,871.76c-204.99,0-371.76-166.77-371.76-371.76S293.01,128.24,498,128.24s371.76,166.77,371.76,371.76-166.77,371.76-371.76,371.76Zm0-737c-201.39,0-365.24,163.84-365.24,365.24s163.85,365.24,365.24,365.24,365.24-163.85,365.24-365.24-163.85-365.24-365.24-365.24Z"/>
  </g>
  <circle class="cls-2" cx="500" cy="500" r="265.63"/>
  <g>
    <path class="cls-2" d="m242.22,661.56l5.5-3.86,18.18,25.92-5.5,3.86-6.78-9.66-26.06,18.27-4.62-6.6,26.06-18.27-6.78-9.66Z"/>
    <path class="cls-2" d="m239.26,711.76l28.99-25.41,17.12,19.53-5.05,4.43-11.75-13.4-6.91,6.05,10.87,12.4-5.05,4.43-10.87-12.4-6.92,6.07,11.8,13.46-5.05,4.43-17.17-19.59Z"/>
    <path class="cls-2" d="m265.99,740.88l-6.43-5.9,35.87-19.4,7.74,7.1-16.27,37.38-6.43-5.9,12.99-28.44-.22-.2-27.23,15.37Zm9.84-11.53l15.2,13.95-4.3,4.69-15.2-13.95,4.3-4.69Z"/>
    <path class="cls-2" d="m332.49,762.22l-6.69-4.82c.5-.95.81-1.9.92-2.85.11-.95.04-1.88-.2-2.78-.25-.9-.66-1.76-1.25-2.57-.59-.81-1.33-1.54-2.22-2.18-1.62-1.17-3.32-1.78-5.09-1.85-1.78-.07-3.54.42-5.3,1.47-1.76,1.04-3.42,2.65-4.98,4.82-1.61,2.23-2.62,4.34-3.05,6.34-.43,2-.32,3.82.33,5.46.64,1.64,1.75,3.03,3.33,4.16.88.64,1.79,1.12,2.72,1.43.93.31,1.85.46,2.77.43.92-.03,1.81-.23,2.67-.59.86-.37,1.67-.92,2.42-1.64l6.67,4.85c-1.21,1.31-2.63,2.38-4.28,3.21-1.64.83-3.42,1.35-5.33,1.56-1.91.21-3.88.04-5.91-.5-2.03-.54-4.05-1.54-6.05-2.98-2.79-2.01-4.83-4.44-6.11-7.28-1.28-2.84-1.7-5.92-1.24-9.22.46-3.3,1.91-6.66,4.36-10.06,2.46-3.41,5.19-5.85,8.2-7.32,3.01-1.47,6.06-2.04,9.17-1.71,3.1.33,6.03,1.48,8.78,3.47,1.81,1.3,3.31,2.77,4.5,4.4,1.18,1.63,2.03,3.36,2.53,5.2.5,1.84.62,3.73.37,5.68-.25,1.95-.93,3.91-2.02,5.88Z"/>
    <path class="cls-2" d="m325.38,787.2l18.37-33.89,7.17,3.88-7.58,13.98,14.54,7.88,7.58-13.98,7.15,3.87-18.37,33.89-7.15-3.87,7.59-14-14.54-7.88-7.59,14-7.17-3.88Z"/>
    <path class="cls-2" d="m362.88,806.66l14.33-35.79,24.11,9.65-2.5,6.24-16.54-6.63-3.42,8.53,15.31,6.13-2.5,6.24-15.31-6.13-3.42,8.54,16.62,6.65-2.5,6.24-24.18-9.68Z"/>
    <path class="cls-2" d="m395.5,819.26l10.43-37.11,14.64,4.12c2.8.79,5.06,1.96,6.76,3.51,1.71,1.55,2.83,3.39,3.36,5.5.53,2.11.46,4.39-.23,6.85-.69,2.46-1.82,4.43-3.38,5.9-1.56,1.47-3.48,2.4-5.75,2.77-2.28.38-4.84.16-7.69-.64l-9.8-2.76,1.77-6.3,8.53,2.4c1.5.42,2.8.57,3.91.43,1.11-.13,2.02-.54,2.74-1.22.72-.68,1.25-1.64,1.59-2.86.35-1.23.39-2.34.14-3.32-.25-.98-.81-1.84-1.69-2.56-.87-.72-2.07-1.29-3.57-1.72l-5.29-1.49-8.63,30.69-7.84-2.21Zm24.79-11.25l4.48,19.48-8.66-2.43-4.28-19.42,8.46,2.38Z"/>
    <path class="cls-2" d="m456.71,805.21c.1-1.52-.34-2.79-1.33-3.81s-2.45-1.68-4.38-2.01c-1.31-.22-2.45-.22-3.42,0-.96.22-1.74.61-2.32,1.17s-.94,1.25-1.08,2.07c-.14.68-.09,1.29.14,1.85.23.56.6,1.07,1.09,1.53.5.46,1.09.88,1.77,1.27.69.39,1.43.74,2.23,1.07l3.28,1.38c1.6.65,3.04,1.4,4.32,2.24,1.28.85,2.36,1.81,3.22,2.88.86,1.07,1.48,2.27,1.84,3.59.36,1.32.42,2.77.16,4.36-.4,2.32-1.32,4.24-2.78,5.75-1.45,1.51-3.35,2.55-5.71,3.12-2.35.57-5.08.6-8.17.08-3.07-.51-5.66-1.42-7.78-2.74-2.12-1.32-3.65-3.01-4.62-5.07-.96-2.06-1.25-4.46-.85-7.21l7.78,1.29c-.12,1.29.07,2.41.58,3.37.51.96,1.28,1.74,2.3,2.35,1.02.61,2.23,1.03,3.62,1.26,1.36.22,2.58.22,3.65,0,1.07-.23,1.95-.65,2.62-1.26.67-.61,1.09-1.38,1.24-2.29.14-.85.01-1.61-.39-2.28-.41-.67-1.05-1.28-1.94-1.85-.89-.57-2-1.13-3.33-1.7l-3.97-1.73c-3.08-1.31-5.41-2.95-6.99-4.92-1.58-1.97-2.13-4.35-1.65-7.16.37-2.3,1.32-4.21,2.85-5.73s3.46-2.57,5.8-3.18c2.34-.6,4.89-.68,7.67-.22,2.82.47,5.21,1.36,7.16,2.68,1.95,1.32,3.37,2.93,4.26,4.85s1.17,4.01.83,6.28l-7.71-1.28Z"/>
    <path class="cls-2" d="m516.01,810.74l-8.24-.04c-.14-1.07-.45-2.02-.91-2.86-.46-.83-1.05-1.55-1.78-2.15s-1.56-1.05-2.51-1.37c-.95-.32-1.97-.48-3.07-.49-1.99-.01-3.74.47-5.22,1.45-1.49.98-2.64,2.4-3.47,4.27s-1.25,4.14-1.26,6.82c-.02,2.75.38,5.06,1.2,6.93.81,1.87,1.96,3.29,3.43,4.25,1.47.96,3.18,1.45,5.13,1.46,1.09,0,2.11-.13,3.04-.42.94-.28,1.77-.7,2.5-1.26.73-.55,1.34-1.23,1.83-2.03.49-.8.83-1.71,1.02-2.74l8.24.08c-.22,1.77-.76,3.47-1.62,5.1s-2,3.09-3.43,4.37c-1.43,1.28-3.13,2.28-5.1,3.02-1.97.74-4.19,1.1-6.66,1.08-3.44-.02-6.51-.81-9.2-2.38-2.7-1.57-4.82-3.83-6.36-6.79s-2.31-6.53-2.29-10.72c.02-4.2.83-7.78,2.43-10.71,1.6-2.94,3.75-5.18,6.47-6.71,2.72-1.53,5.77-2.29,9.16-2.27,2.23.01,4.31.34,6.22.97,1.91.64,3.6,1.56,5.08,2.77,1.47,1.21,2.67,2.68,3.6,4.41.92,1.74,1.51,3.72,1.77,5.96Z"/>
    <path class="cls-2" d="m557.51,811.69c.53,4.17.19,7.82-1.02,10.94s-3.06,5.63-5.58,7.5c-2.51,1.88-5.46,3.03-8.83,3.46-3.4.43-6.54.04-9.44-1.16-2.9-1.2-5.31-3.17-7.25-5.89-1.94-2.73-3.17-6.17-3.7-10.33-.53-4.17-.19-7.82,1.01-10.94,1.2-3.12,3.05-5.62,5.56-7.5s5.46-3.03,8.86-3.46c3.37-.43,6.51-.04,9.41,1.15,2.9,1.2,5.32,3.16,7.27,5.88,1.94,2.72,3.18,6.17,3.71,10.34Zm-8.2,1.04c-.34-2.7-1.03-4.93-2.07-6.68-1.04-1.75-2.35-3.02-3.92-3.79-1.58-.77-3.34-1.04-5.3-.79-1.95.25-3.6.94-4.93,2.08s-2.29,2.69-2.86,4.65c-.57,1.96-.68,4.29-.34,6.99s1.03,4.93,2.07,6.68,2.34,3.02,3.92,3.79c1.58.77,3.34,1.04,5.3.79,1.95-.25,3.6-.94,4.93-2.08,1.34-1.14,2.29-2.69,2.86-4.65.57-1.96.68-4.29.34-6.99Z"/>
    <path class="cls-2" d="m568.47,828.85l-9.19-37.43,7.91-1.95,7.59,30.91,16.05-3.94,1.6,6.53-23.96,5.88Z"/>
    <path class="cls-2" d="m599.76,820.72l-12.75-36.38,7.69-2.7,10.53,30.04,15.59-5.47,2.22,6.34-23.28,8.16Z"/>
    <path class="cls-2" d="m630.2,809.63l-16.31-34.92,23.53-10.99,2.84,6.09-16.15,7.54,3.89,8.32,14.94-6.98,2.84,6.09-14.94,6.98,3.89,8.34,16.22-7.57,2.84,6.09-23.6,11.02Z"/>
    <path class="cls-2" d="m676.88,755.9l-7.04,4.3c-.68-.83-1.44-1.48-2.27-1.95s-1.71-.77-2.64-.89c-.93-.12-1.88-.07-2.85.15s-1.93.63-2.87,1.2c-1.7,1.04-2.93,2.37-3.68,3.98-.75,1.61-.98,3.43-.7,5.46.28,2.03,1.12,4.18,2.51,6.46,1.43,2.34,2.99,4.1,4.66,5.27,1.68,1.17,3.4,1.77,5.16,1.81,1.76.04,3.47-.45,5.13-1.46.93-.57,1.72-1.22,2.37-1.96.65-.73,1.14-1.53,1.47-2.38.33-.86.49-1.75.49-2.69,0-.94-.2-1.89-.57-2.87l7.05-4.27c.74,1.62,1.18,3.35,1.31,5.19.13,1.84-.08,3.68-.62,5.52s-1.46,3.59-2.75,5.25-2.98,3.14-5.09,4.42c-2.93,1.79-5.96,2.73-9.08,2.81-3.12.08-6.11-.73-8.98-2.43-2.87-1.7-5.4-4.34-7.58-7.92-2.19-3.59-3.38-7.05-3.57-10.39-.19-3.34.47-6.38,1.97-9.11,1.5-2.74,3.7-4.99,6.59-6.75,1.91-1.17,3.84-1.98,5.8-2.44,1.96-.46,3.88-.57,5.77-.32,1.89.25,3.68.87,5.38,1.86,1.7.99,3.25,2.37,4.64,4.14Z"/>
    <path class="cls-2" d="m676.07,748.1l-4.16-5.27,24.85-19.62,4.16,5.27-9.26,7.31,19.72,24.98-6.32,4.99-19.72-24.98-9.26,7.31Z"/>
    <path class="cls-2" d="m705.48,714.68l26.24,28.24-5.97,5.55-26.23-28.24,5.97-5.55Z"/>
    <path class="cls-2" d="m715.03,705.32l28.02,12.63.24-.27-15.56-26.51,6.04-6.72,19.81,35.64-7.01,7.82-37.57-15.84,6.05-6.74Z"/>
    <path class="cls-2" d="m766.78,704.24l-31.47-22.25,15-21.21,5.49,3.88-10.29,14.55,7.5,5.3,9.52-13.46,5.49,3.88-9.52,13.46,7.51,5.31,10.33-14.62,5.49,3.88-15.04,21.27Z"/>
  </g>
  <g>
    <path class="cls-2" d="m317.7,263.82l-21.32-30.67,21.7-15.08,3.9,5.61-15.17,10.55,4.63,6.67,14.85-10.32,3.9,5.61-14.85,10.32,8.88,12.78-6.53,4.54Z"/>
    <path class="cls-2" d="m344.58,245.73l-18.03-32.71,6.96-3.84,14.65,26.58,13.83-7.62,3.38,6.13-20.79,11.46Z"/>
    <path class="cls-2" d="m371.21,190.28c10.47-4.28,21.14.07,25.4,10.49,4.26,10.42-.31,21-10.78,25.28-10.42,4.26-21.09-.09-25.35-10.51-4.26-10.42.31-21,10.73-25.26Zm2.67,6.53c-6.38,2.61-8.48,9.15-5.83,15.63,2.63,6.43,8.73,9.68,15.11,7.07s8.51-9.23,5.88-15.65c-2.65-6.48-8.79-9.66-15.16-7.05Z"/>
    <path class="cls-2" d="m435.7,209.85l-12.31-23.44-.39,26.46-8.23,1.96-19.04-33.87,8.66-2.06,12.62,24.75.68-27.91,6.05-1.44,13.11,24.63.08-27.77,8.72-2.07-1.72,38.8-8.23,1.96Z"/>
    <path class="cls-2" d="m473.69,204.32l-2.52-37.27,7.93-.54,2.52,37.27-7.93.54Z"/>
    <path class="cls-2" d="m515.26,203.76l-17.07-25.59-.73,25.07-7.95-.23,1.08-37.33,8.17.24,16.59,24.68.7-24.18,7.95.23-1.08,37.33-7.67-.22Z"/>
    <path class="cls-2" d="m545.65,207.03l7.54-36.58,25.89,5.34-1.38,6.69-18.1-3.73-1.64,7.95,17.71,3.65-1.38,6.69-17.71-3.65-3.14,15.25-7.79-1.61Z"/>
    <path class="cls-2" d="m599.85,221.27l-.25-6.85-15.87-5.15-4.22,5.4-8.31-2.7,25.27-31.07,9.48,3.08,2.16,39.97-8.26-2.68Zm-.77-32.28l-11.2,14.38,11.77,3.82-.57-18.2Z"/>
    <path class="cls-2" d="m611.64,226.03l14.73-34.33,7.31,3.14-14.73,34.33-7.31-3.14Z"/>
    <path class="cls-2" d="m633.93,236.34l14.22-26.81-9.65-5.12,3.28-6.18,26.32,13.96-3.28,6.18-9.6-5.09-14.22,26.81-7.07-3.75Z"/>
    <path class="cls-2" d="m676.19,262.59l9.01-12.83-14.44-10.13-9.01,12.83-6.51-4.57,21.46-30.57,6.51,4.57-8.43,12.01,14.44,10.13,8.43-12.01,6.55,4.6-21.46,30.57-6.55-4.6Z"/>
  </g>
  <g>
    <g class="cls-9">
      <path class="cls-5" d="m658.88,610.06c-1.18-1.64-28.69-39.06-75.64-40.46,10.42-8.57,24.73-26.58,24.56-60.78l-.02-3.18-3.18-.07c-1.51-.06-34.3-.38-52.63,24.69-1.22-3.99-3.08-8.76-5.88-13.84,7.24-6.28,12.63-14.13,16.81-22.43,9.22-18.23,11.94-39.82,6.76-59.63-2.2-9.82-5.79-19.74-11.79-28.25-11.62-16.57-29.22-26.52-41.21-42.26-10.59-15.08-15.14-34.85-15.24-53.11,0-.63-.51-1.14-1.15-1.14h-3.08c-.63,0-1.14.51-1.15,1.14-.09,18.26-4.65,38.03-15.24,53.11-11.98,15.74-29.58,25.7-41.21,42.26-6,8.51-9.59,18.43-11.79,28.25-2.34,9.8-3.44,20.33-2.06,30.43,2.65,19.38,10.78,38.42,25.65,51.6-2.81,5.09-4.67,9.87-5.9,13.87-18.33-25.07-51.12-24.75-52.63-24.69l-3.18.07-.02,3.18c-.17,34.17,14.12,52.18,24.54,60.76-46.87,1.48-74.43,38.84-75.62,40.48l-1.37,1.9,1.36,1.9c1.27,1.78,31.16,42.86,78.19,42.86.87,0,1.75-.01,2.63-.04,43.72-1.42,73.2-31.67,79.32-38.51,6.12,6.84,35.6,37.09,79.32,38.51.88.03,1.75.04,2.63.04,47.01,0,76.91-41.08,78.19-42.86l1.36-1.9-1.37-1.9Zm-57.64-97.83c-1.09,43.11-27.22,56.31-30.67,57.86-8.03.88-15.49,2.75-22.33,5.25,7.13-12.92,6.63-27.91,6.05-33.99h.01c-.01-.15-.07-.94-.27-2.24,12.51-22.41,38.17-26.25,47.2-26.89Zm-169.07-48.2c-1.24-9.53-.17-18.84,2.03-28.21,2.1-9.36,5.39-18.33,10.78-25.97,8.16-11.57,20.57-20.7,30.86-30.81,12.03-10.54,19.2-24.88,22.92-40.21,2.47,10.21,6.5,19.99,12.62,28.82,11.76,15.8,29.98,26.32,41.16,42.2,5.39,7.65,8.68,16.61,10.78,25.97,2.19,9.37,3.27,18.68,2.03,28.21-2.19,17.23-9.66,35.11-22.52,46.99-1.41-2.1-2.98-4.22-4.75-6.33-6.31-7.5-14.01-11.49-20.93-13.6,12.85-6.59,21.69-19.94,21.69-35.35,0-21.91-17.82-39.73-39.73-39.73h-.7c-21.91,0-39.73,17.82-39.73,39.73,0,15.41,8.84,28.77,21.69,35.35-6.91,2.11-14.62,6.1-20.93,13.6-1.77,2.11-3.34,4.23-4.75,6.33-12.86-11.87-20.33-29.76-22.52-46.99Zm66.78,24.91h-.39c-.34-.03-1.12-.08-2.18-.1-17.36-1.06-31.18-15.48-31.18-33.1s14.89-33.2,33.2-33.2h.7c18.31,0,33.2,14.89,33.2,33.2s-13.81,32.05-31.18,33.1c-1.06.02-1.84.07-2.18.1Zm-102.68,23.29c9.04.65,34.69,4.49,47.2,26.89-.19,1.3-.26,2.09-.27,2.24h.01c-.59,6.08-1.08,21.07,6.05,33.99-6.84-2.51-14.29-4.38-22.32-5.25-3.22-1.49-29.57-15.02-30.68-57.86Zm22.95,137.93c-.78.03-1.56.04-2.34.04-38.11,0-65.03-30.23-71.47-38.22,6.39-7.77,33-36.78,73.33-35.9,40.18.85,67.57,30.43,74.36,38.58-7.07,7.53-34.83,34.24-73.88,35.51Zm79.53-38.94c-3.93-4.91-16.7-19.58-36.64-30.14-15.69-13.63-12.47-38.95-12.15-41.21.77-4.89,3.76-18.24,14.47-30.98,11.1-13.2,27.88-13.64,32.43-13.5.4.02.8.06,1.2.06h0l.17.02h.13s.02,0,.04,0h0s.7-.01.7-.01h0c.5.01.99-.04,1.49-.06,4.5-.14,21.35.26,32.48,13.5,10.81,12.85,13.77,26.47,14.5,31.2.46,3.37,3.14,27.68-12.18,40.99-19.94,10.56-32.72,25.23-36.64,30.14Zm79.53,38.94c-39.05-1.27-66.82-27.98-73.88-35.51,6.79-8.14,34.18-37.73,74.36-38.58,40.32-.88,66.93,28.14,73.33,35.91-6.56,8.15-34.47,39.46-73.81,38.18Z"/>
      <path class="cls-4" d="m582.86,655c-.86,0-1.72-.01-2.59-.04-43.57-1.41-73.12-32.05-78.61-38.18l-.75-.83-.75.83c-5.48,6.13-35.04,36.76-78.61,38.18-.87.03-1.74.04-2.59.04-46.5,0-76.13-40.71-77.37-42.44l-.94-1.32.95-1.32c1.14-1.57,28.36-38.6,74.84-40.07l2.65-.08-2.05-1.69c-11.12-9.16-24.34-27-24.17-59.98v-2.21s2.22-.04,2.22-.04c.1,0,.28,0,.56,0,3.43,0,33.98.68,51.24,24.29l1.18,1.61.58-1.91c1.43-4.67,3.38-9.27,5.82-13.68l.39-.7-.6-.53c-13.46-11.93-22.46-30.04-25.32-50.98-1.24-9.07-.55-19.18,2.04-30.06,2.48-11.09,6.39-20.48,11.63-27.91,6.04-8.6,13.86-15.54,21.43-22.25,6.89-6.11,14.01-12.43,19.76-19.98,9.86-14.05,15.34-33.07,15.44-53.58,0-.09.06-.15.15-.15h3.08c.08,0,.15.06.15.15.11,20.51,5.58,39.53,15.42,53.55,5.77,7.58,12.89,13.9,19.78,20.01,7.56,6.71,15.39,13.65,21.42,22.25,5.24,7.43,9.15,16.82,11.63,27.9,5.02,19.18,2.58,40.65-6.68,58.96-4.66,9.26-10.08,16.5-16.58,22.13l-.61.53.39.71c2.43,4.4,4.38,9,5.8,13.65l.58,1.91,1.18-1.61c17.25-23.61,47.81-24.29,51.24-24.29.28,0,.46,0,.54,0l2.22.05v2.21c.18,32.99-13.05,50.84-24.19,60l-2.06,1.69,2.66.08c46.51,1.39,73.72,38.47,74.86,40.05l.95,1.32-.94,1.32c-1.24,1.73-30.87,42.44-77.37,42.44Zm-.15-80.67c-.6,0-1.21,0-1.81.02-40.28.85-67.67,30.02-75.1,38.94l-.57.68.61.65c7.59,8.08,35.39,34.55,74.58,35.82.8.03,1.59.04,2.39.04,38.21,0,64.95-29.54,72.23-38.59l.51-.63-.52-.63c-7.01-8.51-32.96-36.29-72.31-36.29Zm-163.6,0c-39.42,0-65.31,27.78-72.31,36.29l-.52.63.51.63c7.3,9.05,34.08,38.59,72.24,38.59.79,0,1.58-.01,2.37-.04,39.19-1.27,66.99-27.74,74.58-35.82l.61-.65-.57-.68c-7.44-8.92-34.82-38.09-75.1-38.94-.61-.01-1.22-.02-1.82-.02Zm78.79-80.69c-6.14,0-21.54,1.35-32.07,13.87-10.81,12.85-13.88,26.29-14.69,31.47-.41,2.86-3.54,28.21,12.48,42.12l.09.08.1.05c20.01,10.59,32.87,25.55,36.33,29.88l.78.98.78-.98c3.46-4.33,16.31-19.29,36.33-29.88l.1-.05.09-.08c15.82-13.75,12.9-39.04,12.51-41.88-.82-5.25-3.88-18.81-14.73-31.71-10.53-12.52-25.95-13.87-32.09-13.87-.46,0-.85,0-1.19.02-.22,0-.43.02-.64.04-.13,0-.25.02-.38.02h-.45s-.81.01-.81.01h-.11c-.31-.02-.53-.03-.75-.05-.17-.01-.34-.02-.51-.03-.34-.01-.72-.02-1.17-.02Zm-100.47,17.88c1.13,43.54,28.18,57.32,31.26,58.75l.15.07.16.02c7.46.81,14.89,2.56,22.08,5.2l2.51.92-1.29-2.34c-7.03-12.73-6.49-27.6-5.93-33.41l.1-1.02h0c.04-.32.09-.71.16-1.16l.05-.34-.17-.3c-12.58-22.53-37.76-26.67-48-27.4l-1.1-.08.03,1.1Zm158.03,29.2c.56,5.8,1.1,20.67-5.93,33.41l-1.29,2.34,2.51-.92c7.19-2.63,14.62-4.38,22.09-5.2l.16-.02.14-.06c3.08-1.39,30.14-14.84,31.26-58.75l.03-1.1-1.1.08c-10.24.73-35.42,4.87-48,27.4l-.17.3.05.34c.08.53.14.97.18,1.31l.07.88Zm-54.19-124.45c21.36,0,38.73,17.37,38.73,38.73,0,14.57-8.1,27.78-21.15,34.46l-2.2,1.13,2.36.72c8.28,2.52,15.16,6.99,20.45,13.29,1.64,1.95,3.22,4.05,4.69,6.24l.65.97.86-.79c12.08-11.16,20.4-28.5,22.83-47.6,1.13-8.69.48-17.77-2.05-28.57-2.39-10.66-5.97-19.27-10.93-26.32-5.8-8.24-13.58-15.14-21.1-21.81-7.09-6.29-14.42-12.8-20.08-20.41-5.67-8.17-9.86-17.76-12.45-28.45h-1.94c-4.06,16.75-11.66,30.11-22.6,39.69-3.26,3.2-6.77,6.34-10.16,9.37-7.47,6.68-15.2,13.6-20.86,21.62-4.97,7.05-8.54,15.66-10.94,26.33-2.53,10.8-3.18,19.87-2.04,28.56,2.42,19.09,10.74,36.43,22.83,47.59l.86.79.65-.97c1.47-2.19,3.05-4.29,4.69-6.24,5.29-6.3,12.18-10.77,20.45-13.29l2.36-.72-2.2-1.13c-13.04-6.68-21.15-19.89-21.15-34.46,0-21.36,17.37-38.73,38.73-38.73h.7Zm-.7,4.53c-18.86,0-34.2,15.34-34.2,34.2s14.11,33,32.12,34.1c1.26.03,2.02.09,2.15.1h.48c.23-.01.98-.07,2.2-.1,18.05-1.1,32.16-16.07,32.16-34.1s-15.34-34.2-34.2-34.2h-.7Z"/>
    </g>
    <path class="cls-1" d="m581.73,655.72c-.86,0-1.72-.01-2.59-.04-43.58-1.41-73.13-32.05-78.61-38.18l-.75-.83-.75.83c-5.48,6.13-35.03,36.76-78.61,38.18-.87.03-1.74.04-2.59.04-46.5,0-76.13-40.71-77.37-42.44l-.94-1.32.95-1.32c1.14-1.57,28.37-38.6,74.84-40.07l2.65-.08-2.05-1.69c-11.12-9.16-24.34-27.01-24.17-59.98v-2.2s2.21-.04,2.21-.04c.1,0,.28,0,.56,0,3.43,0,33.98.68,51.24,24.29l1.18,1.61.58-1.91c1.43-4.67,3.38-9.27,5.82-13.68l.39-.7-.6-.53c-13.46-11.93-22.46-30.04-25.32-50.98-1.24-9.07-.55-19.18,2.04-30.06,2.48-11.09,6.39-20.48,11.63-27.91,6.04-8.6,13.86-15.54,21.43-22.25,6.89-6.11,14.01-12.43,19.76-19.98,9.86-14.05,15.34-34.2,15.44-54.71,0-.08.06-.15.15-.15h3.08c.08,0,.15.06.15.15.11,20.51,5.58,40.66,15.42,54.68,5.77,7.58,12.89,13.9,19.78,20.01,7.56,6.71,15.39,13.65,21.42,22.25,5.24,7.43,9.15,16.82,11.63,27.9,5.02,19.18,2.58,40.65-6.68,58.96-4.66,9.26-10.09,16.5-16.58,22.13l-.61.53.39.71c2.43,4.4,4.38,8.99,5.8,13.65l.58,1.91,1.18-1.61c17.25-23.61,47.81-24.29,51.24-24.29.28,0,.46,0,.54,0l2.22.05v2.21c.18,32.99-13.05,50.84-24.19,60l-2.06,1.69,2.66.08c46.51,1.39,73.72,38.47,74.86,40.05l.95,1.32-.94,1.32c-1.24,1.73-30.87,42.44-77.37,42.44Zm-163.75-80.67c-39.42,0-65.31,27.78-72.31,36.29l-.52.63.51.63c7.3,9.05,34.09,38.59,72.25,38.59.79,0,1.58-.01,2.37-.04,39.19-1.27,66.99-27.74,74.58-35.82l.61-.65-.57-.68c-7.44-8.92-34.83-38.09-75.1-38.94-.61-.01-1.22-.02-1.82-.02Zm163.6,0c-.6,0-1.21,0-1.82.02-40.28.85-67.67,30.02-75.11,38.94l-.57.68.61.65c7.59,8.08,35.39,34.55,74.58,35.82.8.03,1.59.04,2.39.04,38.21,0,64.95-29.54,72.23-38.59l.51-.63-.52-.63c-7.02-8.51-32.97-36.29-72.31-36.29Zm-84.81-80.69c-6.14,0-21.55,1.35-32.07,13.87-10.81,12.85-13.88,26.29-14.69,31.47-.41,2.86-3.54,28.21,12.48,42.12l.09.08.1.05c20.01,10.59,32.87,25.55,36.33,29.88l.78.98.78-.98c3.46-4.33,16.32-19.29,36.33-29.88l.1-.05.09-.08c15.83-13.75,12.9-39.04,12.51-41.88-.82-5.25-3.88-18.81-14.73-31.71-10.53-12.52-25.95-13.87-32.09-13.87-.46,0-.86,0-1.19.02-.22,0-.43.02-.63.04-.13,0-.26.02-.39.02h-.45s-.81.01-.81.01h-.1c-.32-.02-.54-.03-.76-.05-.17-.01-.34-.02-.51-.03-.33-.01-.72-.02-1.17-.02Zm57.55,47.08c.56,5.8,1.1,20.67-5.93,33.41l-1.29,2.34,2.51-.92c7.19-2.63,14.62-4.38,22.09-5.2l.16-.02.15-.06c3.08-1.39,30.14-14.83,31.26-58.75l.03-1.1-1.1.08c-10.24.73-35.42,4.88-48,27.4l-.17.3.05.34c.08.53.14.97.18,1.32l.07.87Zm-158.03-29.2c1.13,43.55,28.18,57.32,31.26,58.75l.15.07.16.02c7.47.82,14.9,2.56,22.08,5.2l2.51.92-1.29-2.34c-7.03-12.74-6.49-27.6-5.93-33.41l.1-1.03h0c.04-.32.09-.71.16-1.16l.05-.34-.17-.3c-12.58-22.53-37.76-26.67-48-27.4l-1.1-.08.03,1.1Zm102.51-173.66c-4.06,16.75-11.66,30.11-22.6,39.69-3.26,3.2-6.77,6.34-10.15,9.37-7.47,6.68-15.2,13.6-20.86,21.62-4.96,7.05-8.54,15.66-10.93,26.33-2.53,10.8-3.18,19.87-2.04,28.56,2.42,19.09,10.75,36.44,22.83,47.59l.86.79.65-.97c1.46-2.19,3.04-4.29,4.69-6.24,5.29-6.29,12.17-10.77,20.45-13.29l2.36-.72-2.2-1.13c-13.04-6.68-21.15-19.89-21.15-34.46,0-21.35,17.37-38.73,38.73-38.73h.7c21.36,0,38.73,17.37,38.73,38.73,0,14.57-8.1,27.78-21.15,34.46l-2.2,1.13,2.36.72c8.28,2.52,15.16,6.99,20.45,13.29,1.64,1.95,3.22,4.05,4.69,6.24l.65.97.86-.79c12.08-11.16,20.4-28.5,22.83-47.6,1.13-8.69.48-17.76-2.05-28.57-2.39-10.66-5.97-19.27-10.93-26.32-5.8-8.24-13.58-15.14-21.1-21.81-7.09-6.29-14.42-12.8-20.08-20.41-5.67-8.17-9.86-17.75-12.45-28.45h-1.94Zm.63,82.94c-18.86,0-34.2,15.34-34.2,34.2s14.11,33,32.12,34.1c1,.02,1.78.07,2.15.1h.48c.45-.03,1.22-.08,2.2-.1,18.05-1.1,32.16-16.08,32.16-34.1s-15.34-34.2-34.2-34.2h-.7Z"/>
  </g>
  <g class="cls-7">
    <path class="cls-5" d="m498,768.89c-148.27,0-268.89-120.62-268.89-268.89s120.62-268.89,268.89-268.89,268.89,120.62,268.89,268.89-120.62,268.89-268.89,268.89Zm0-531.26c-144.67,0-262.36,117.7-262.36,262.37s117.7,262.37,262.36,262.37,262.37-117.7,262.37-262.37-117.7-262.37-262.37-262.37Z"/>
    <path class="cls-3" d="m502,768.89c-148.27,0-268.89-120.62-268.89-268.89s120.62-268.89,268.89-268.89,268.89,120.62,268.89,268.89-120.62,268.89-268.89,268.89Zm0-531.26c-144.67,0-262.36,117.7-262.36,262.37s117.7,262.37,262.36,262.37,262.37-117.7,262.37-262.37-117.7-262.37-262.37-262.37Z"/>
  </g>
  <path class="cls-1" d="m500,768.89c-148.27,0-268.89-120.62-268.89-268.89s120.62-268.89,268.89-268.89,268.89,120.62,268.89,268.89-120.62,268.89-268.89,268.89Zm0-531.26c-144.67,0-262.36,117.7-262.36,262.37s117.7,262.37,262.36,262.37,262.37-117.7,262.37-262.37-117.7-262.37-262.37-262.37Z"/>
  <path class="cls-1" d="m500,871.76c-204.99,0-371.76-166.77-371.76-371.76S295.01,128.24,500,128.24s371.76,166.77,371.76,371.76-166.77,371.76-371.76,371.76Zm0-737c-201.39,0-365.24,163.84-365.24,365.24s163.85,365.24,365.24,365.24,365.24-163.85,365.24-365.24-163.85-365.24-365.24-365.24Z"/>
  <g>
    <g class="cls-6">
      <path class="cls-4" d="m499.71,185.58c.1,0,.2,0,.29.01.09-.01.19-.01.29-.01h-.58Zm.29,628.83c-.09.01-.19.01-.29.01h.58c-.1,0-.2,0-.29-.01Zm-208.39-551.16l-2.02-2.7c-66.15,58.68-107.91,144.28-107.91,239.45,0,54.83,13.86,106.48,38.26,151.64l2.26-1.28,1.31-.74,1.33-.74c-23.94-44.34-37.54-95.06-37.54-148.88,0-93.33,40.88-177.3,105.67-234.92l-.68-.92-.68-.91Zm420.62-4.13l-.69.92-.68.91-2.01,2.7c65.73,57.66,107.29,142.24,107.29,236.35,0,54.29-13.83,105.41-38.15,150.02l2.25,1.27h0s1.32.75,1.32.75l1.32.74c24.79-45.43,38.88-97.49,38.88-152.78,0-95.94-42.44-182.16-109.53-240.88Z"/>
      <path class="cls-5" d="m291.61,263.25l-2.02-2.7-.68-.92-.68-.91c-67.36,58.72-109.99,145.12-109.99,241.28,0,55.43,14.16,107.61,39.07,153.12l1.31-.74,1.32-.74,2.26-1.28c-24.44-44.69-38.34-95.94-38.34-150.36,0-94.33,41.75-179.08,107.75-236.75Zm208.39,551.16c-.09.01-.19.01-.29.01h.58c-.1,0-.2,0-.29-.01Zm210.86-553.46l-2.01,2.7-.68.91-.69.92c64.53,57.62,105.22,141.41,105.22,234.52,0,53.68-13.52,104.27-37.35,148.53l1.32.75,1.32.74,2.25,1.27c24.29-45.08,38.08-96.6,38.08-151.29,0-94.95-41.57-180.38-107.46-239.05Zm-211.15-75.37c.1,0,.2,0,.29.01.09-.01.19-.01.29-.01h-.58Z"/>
    </g>
    <path class="cls-1" d="m500,820.03c-.09,0-.19,0-.29,0h.58c-.1,0-.2,0-.29,0Zm-210.41-559.48l-.68-.92c-66.76,58.7-108.95,144.7-108.95,240.37,0,55.13,14.01,107.05,38.66,152.38l1.32-.74,2.26-1.28,1.31-.74c-24.18-44.52-37.93-95.5-37.93-149.62,0-93.83,41.31-178.19,106.71-235.84l-.68-.91-2.02-2.7Zm421.95-.51l-.68.91-2.01,2.7-.68.91c65.13,57.64,106.25,141.83,106.25,235.44,0,53.99-13.68,104.84-37.75,149.28l1.32.74,2.25,1.27h0s1.32.75,1.32.75c24.54-45.25,38.48-97.05,38.48-152.04,0-95.45-42-181.28-108.5-239.96Zm-211.83-80.08c.1,0,.2,0,.29,0,.09,0,.19,0,.29,0h-.58Z"/>
  </g>
</svg>